<svg xmlns="http://www.w3.org/2000/svg" viewBox="0 0 16 16" version="1.1">
    <style id="current-color-scheme" type="text/css">
        .ColorScheme-Text { color:#232629; }
    </style>
    <path class="ColorScheme-Text" fill="currentColor" d="M4.082 3.658A1.09 1.09 0 0 0 3 4.74v4.7c.002.598.484 1.005 1.082 1.008h1.365v1.895l1.818-1.895h4.65c.598 0 1.083-.41 1.085-1.007v-4.7a1.09 1.09 0 0 0-1.083-1.082Zm2.939.795a.275.275 0 0 1 .275.275v4.653a.274.274 0 1 1-.548 0V4.728a.275.275 0 0 1 .273-.275m.977.505h.003a.275.275 0 0 1 .273.275v3.646A.275.275 0 0 1 8 9.155a.275.275 0 0 1-.275-.276V5.232A.275.275 0 0 1 8 4.958m-1.956.921a.275.275 0 0 1 .275.273v1.806a.275.275 0 1 1-.55 0V6.152a.275.275 0 0 1 .275-.273m3.913 0a.275.275 0 0 1 .275.273v1.806a.274.274 0 1 1-.548 0V6.152a.275.275 0 0 1 .273-.273m-4.891.334a.275.275 0 0 1 .275.275v1.134a.274.274 0 0 1-.548 0V6.487a.275.275 0 0 1 .273-.275m3.913 0a.275.275 0 0 1 .275.275v1.135a.274.274 0 1 1-.547 0V6.487a.275.275 0 0 1 .272-.275m1.957.474a.275.275 0 0 1 .275.276v.187a.275.275 0 1 1-.55 0V6.96a.275.275 0 0 1 .276-.275" />
</svg>
